<?xml version="1.0" encoding="UTF-8"?>
<svg width="133px" height="24px" viewBox="0 0 133 24" version="1.1" xmlns="http://www.w3.org/2000/svg"
     xmlns:xlink="http://www.w3.org/1999/xlink">
    <!-- Generator: Sketch 57.1 (83088) - https://sketch.com -->
    <title>klaytnscope_logo</title>
    <desc>Created with Sketch.</desc>
    <defs>
        <path d="M83.101,18.224 L83.56,17.68 C83.56,17.68 84.512,18.751 86.195,18.751 C87.232,18.751 88.15,18.207 88.15,17.153 C88.15,14.994 83.475,15.606 83.475,12.835 C83.475,11.322 84.75,10.54 86.195,10.54 C87.929,10.54 88.711,11.458 88.711,11.458 L88.286,12.036 C88.286,12.036 87.589,11.237 86.144,11.237 C85.175,11.237 84.223,11.679 84.223,12.784 C84.223,14.994 88.898,14.331 88.898,17.153 C88.898,18.513 87.742,19.448 86.178,19.448 C84.121,19.448 83.101,18.224 83.101,18.224 Z M90.649,15.011 C90.649,12.308 92.672,10.54 95.035,10.54 C97.058,10.54 98.078,11.747 98.078,11.747 L97.636,12.325 C97.636,12.325 96.667,11.237 95.035,11.237 C93.046,11.237 91.397,12.716 91.397,15.011 C91.397,17.272 93.046,18.751 95.035,18.751 C96.905,18.751 97.874,17.527 97.874,17.527 L98.248,18.122 C98.248,18.122 97.143,19.448 95.035,19.448 C92.638,19.448 90.649,17.714 90.649,15.011 Z M99.931,14.943 C99.931,12.461 101.903,10.54 104.334,10.54 C106.765,10.54 108.737,12.461 108.737,14.943 C108.737,17.476 106.765,19.448 104.334,19.448 C101.903,19.448 99.931,17.476 99.931,14.943 Z M100.679,14.943 C100.679,17.102 102.311,18.751 104.334,18.751 C106.357,18.751 107.989,17.102 107.989,14.943 C107.989,12.835 106.357,11.237 104.334,11.237 C102.311,11.237 100.679,12.835 100.679,14.943 Z M111.1,22.644 L111.1,10.744 L111.814,10.744 L111.814,11.764 C111.814,12.155 111.763,12.444 111.763,12.444 L111.797,12.444 C111.797,12.444 112.494,10.54 114.857,10.54 C117.135,10.54 118.529,12.359 118.529,14.994 C118.529,17.697 116.948,19.448 114.755,19.448 C112.545,19.448 111.78,17.527 111.78,17.527 L111.746,17.527 C111.746,17.527 111.814,17.833 111.814,18.275 L111.814,22.644 L111.1,22.644 Z M111.797,15.011 C111.797,16.898 112.851,18.751 114.755,18.751 C116.421,18.751 117.781,17.374 117.781,14.994 C117.781,12.699 116.557,11.237 114.823,11.237 C113.259,11.237 111.797,12.342 111.797,15.011 Z M120.348,15.011 C120.348,12.138 122.303,10.54 124.479,10.54 C126.791,10.54 127.947,12.359 127.947,14.416 C127.947,14.603 127.913,14.875 127.913,14.875 L121.096,14.875 C121.096,17.34 122.762,18.751 124.734,18.751 C126.366,18.751 127.369,17.68 127.369,17.68 L127.76,18.275 C127.76,18.275 126.57,19.448 124.734,19.448 C122.337,19.448 120.348,17.714 120.348,15.011 Z M121.147,14.212 L127.199,14.212 C127.114,12.138 125.873,11.203 124.462,11.203 C122.898,11.203 121.453,12.223 121.147,14.212 Z"
              id="path-1"></path>
    </defs>
    <g id="scope_211018" stroke="none" stroke-width="1" fill="none" fill-rule="evenodd">
        <g id="klaytn_scope_bridge01" transform="translate(-54.000000, -23.000000)">
            <g id="side_menu" transform="translate(-1.000000, 0.000000)">
                <g id="klaystatiotn_logo" transform="translate(55.000000, 23.000000)">
                    <g id="scope_logo" fill-rule="nonzero">
                        <use fill="#000000" xlink:href="#path-1"></use>
                        <use fill="#CACBD8" xlink:href="#path-1"></use>
                    </g>
                    <g id="Group-23" transform="translate(1.000000, 1.000000)" fill="#FFFFFF">
                        <path d="M10.9928143,12.3846233 L18.0334537,19.4254344 L17.7871517,19.6254208 C13.7283913,22.8252106 7.9380945,22.7588885 3.95114477,19.4262928 L3.95114477,19.4262928 L10.9928143,12.3846233 Z M19.4336837,3.94375386 L19.6336392,4.19007118 C22.7676294,8.1662435 22.7673789,13.8039098 19.6327359,17.7797656 L19.4327394,18.0260628 L12.3921001,10.9854234 L19.4336837,3.94375386 Z M8.62501676,1.68978779 L2.4732243,17.9348087 L2.24355687,17.6440872 C0.675072892,15.5883984 -0.070489381,13.1064053 0.00523649988,10.6446558 L0.0216413007,10.2931632 L8.62501676,1.68978779 Z M11.3810088,-1.13686838e-13 L11.7556165,0.0194683122 C13.8766771,0.165759712 15.962938,0.923591258 17.7277325,2.29468467 L18.0357715,2.54300872 L5.77493778,14.8039283 L11.3810088,-1.13686838e-13 Z"
                              id="Combined-Shape"></path>
                        <path d="M54.247874,9.29570837 L56.8482798,16.2980011 L59.4716857,9.29570837 L61.7615165,9.29570837 L57.20046,21.4701724 L54.9107024,21.4701724 L56.1401103,18.1885527 L55.3045612,18.1885527 L52.0021389,9.29570837 L54.247874,9.29570837 Z M45.8616477,9.11790422 C47.1416705,9.11790422 48.2088323,9.51007832 49.0626204,10.4110386 L49.0626204,10.4110386 L49.0626204,9.29567907 L51.1459629,9.29567907 L51.1459629,18.1888164 L49.0622542,18.1888164 L49.0622542,17.0882531 C48.2088323,17.9893599 47.1416705,18.3666645 45.8612814,18.3666645 C44.5923924,18.366811 43.5370969,17.9281239 42.6953216,17.05053 C41.8418998,16.161143 41.4151522,15.0583822 41.4151522,13.7421745 C41.4151522,12.4259667 41.841973,11.3232792 42.6956878,10.4340387 C43.5373166,9.55659131 44.5926121,9.11790422 45.8616477,9.11790422 Z M30.0837087,5.99997365 L30.0837087,15.6767999 L34.5230258,9.29573034 L36.8589301,9.29573034 L33.7759612,13.7368786 L36.8589301,18.1885747 L34.5376023,18.1885747 L32.6115982,15.4141297 L30.6856674,18.1885747 L28,18.1885747 L28,5.99997365 L30.0837087,5.99997365 Z M40.0894954,5.99999562 L40.0894954,18.1885966 L38.0057867,18.1885966 L38.0057867,5.99999562 L40.0894954,5.99999562 Z M66.2152929,7.21211683 L66.2152929,9.29567907 L68.3134316,9.29567907 L68.3134316,11.2647534 L66.2152929,11.2647534 L66.2152929,18.1885966 L64.1317306,18.1885966 L64.1317306,11.2647534 L62.0335919,11.2647534 L62.7712806,9.29567907 L64.1317306,9.29567907 L64.1317306,7.21211683 L66.2152929,7.21211683 Z M73.9953414,9.12859855 C76.4067222,9.12859855 77.909742,10.7986192 77.996069,13.3895574 L78,13.6276133 L78,18.1885966 L75.8684598,18.1885966 L75.8684598,13.6275401 C75.8684598,12.0356238 75.2065836,10.9604779 73.5244981,10.9604779 C72.1513088,10.9604779 71.4667821,11.9920253 71.4121222,13.3122448 L71.4085599,13.4860234 L71.4085599,18.1885966 L69.3248511,18.1885966 L69.3248511,9.30644664 L71.4085599,9.30644664 L71.4085599,10.4660485 C71.9248174,9.63452804 72.8633544,9.12859855 73.9953414,9.12859855 Z M46.2740384,11.014682 C44.7676768,11.0146088 43.5464727,12.2357396 43.5464727,13.7421012 C43.5463995,15.2484629 44.7675303,16.469667 46.2738919,16.469667 C47.7803268,16.469667 49.0014577,15.2485361 49.0014577,13.7421745 C49.0014577,12.2358128 47.7803268,11.0147553 46.2740384,11.014682 Z"
                              id="Combined-Shape"></path>
                    </g>
                </g>
            </g>
        </g>
    </g>
</svg>